<svg width="124" height="182" viewBox="0 0 124 182" fill="none" xmlns="http://www.w3.org/2000/svg">
<path d="M5.2533 119.298H56.9902V134.815H5.2533V119.298Z" fill="#F0D0B0"/>
<path d="M15.6007 129.643H46.6428V145.16H15.6007V129.643Z" fill="#F0D0B0"/>
<path d="M10.427 160.677H46.6428V171.022H10.427V160.677Z" fill="#F0D0B0"/>
<path d="M10.427 108.952H56.9902V119.297H10.427V108.952Z" fill="#F83800"/>
<path d="M5.2533 145.159H25.948V160.676H5.2533V145.159Z" fill="#F83800"/>
<path d="M36.2954 145.159H46.6428V155.504H36.2954V145.159Z" fill="#F83800"/>
<path d="M20.7744 165.849H41.4691V176.194H20.7744V165.849Z" fill="#F83800"/>
<path d="M15.6007 171.021H41.4691V176.194H15.6007V171.021Z" fill="#F83800"/>
<path d="M15.6009 103.78H46.643V108.953H15.6009V103.78Z" fill="black"/>
<path d="M46.643 108.953H56.9904V114.125H46.643V108.953Z" fill="black"/>
<path d="M41.4693 119.298H56.9904V124.47H41.4693V119.298Z" fill="black"/>
<path d="M31.122 134.815H56.9904V139.987H31.122V134.815Z" fill="black"/>
<path d="M5.25352 119.298H20.7746V124.47H5.25352V119.298Z" fill="black"/>
<path d="M15.6009 124.47H25.9483V134.815H15.6009V124.47Z" fill="black"/>
<path d="M25.9483 150.332H36.2956V165.849H25.9483V150.332Z" fill="black"/>
<path d="M36.2956 155.504H51.8167V160.677H36.2956V155.504Z" fill="black"/>
<path d="M36.2956 165.849H51.8167V171.022H36.2956V165.849Z" fill="black"/>
<path d="M10.4272 176.194H46.643V181.366H10.4272V176.194Z" fill="black"/>
<path d="M20.7746 145.16H36.2956V150.332H20.7746V145.16Z" fill="black"/>
<path d="M5.25352 134.815H15.6009V139.987H5.25352V134.815Z" fill="black"/>
<path d="M10.4272 139.987H20.7746V145.16H10.4272V139.987Z" fill="black"/>
<path d="M5.25352 145.16H10.4272V150.332H5.25352V145.16Z" fill="black"/>
<path d="M10.4272 171.022H15.6009V176.194H10.4272V171.022Z" fill="black"/>
<path d="M41.4693 155.504H46.643V176.194H41.4693V155.504Z" fill="black"/>
<path d="M46.643 150.332H51.8167V165.849H46.643V150.332Z" fill="black"/>
<path d="M56.9904 124.47H62.1641V134.815H56.9904V124.47Z" fill="black"/>
<path d="M31.122 119.298H36.2956V129.642H31.122V119.298Z" fill="black"/>
<path d="M0.079834 124.47H5.25352V134.815H0.079834V124.47Z" fill="black"/>
<path d="M0.079834 150.332H5.25352V160.677H0.079834V150.332Z" fill="black"/>
<path d="M5.25352 160.677H10.4272V171.022H5.25352V160.677Z" fill="black"/>
<path d="M41.4693 145.16H46.643V150.332H41.4693V145.16Z" fill="black"/>
<path d="M46.643 139.987H51.8167V145.16H46.643V139.987Z" fill="black"/>
<path d="M36.2956 129.642H41.4693V134.815H36.2956V129.642Z" fill="black"/>
<path d="M56.9904 114.125H62.1641V119.298H56.9904V114.125Z" fill="black"/>
<path d="M10.4272 114.125H15.6009V108.953H10.4272V114.125Z" fill="black"/>
<path d="M5.25352 119.298H10.4272V114.125H5.25352V119.298Z" fill="black"/>
</svg>
